<svg width="22" height="22" viewBox="0 0 22 22" fill="none" xmlns="http://www.w3.org/2000/svg">
<path d="M11.6875 6.87503V10.6107L14.7916 12.473C14.9479 12.5669 15.0606 12.7191 15.1047 12.896C15.1489 13.073 15.1209 13.2602 15.027 13.4166C14.9331 13.5729 14.781 13.6856 14.604 13.7297C14.427 13.7739 14.2398 13.746 14.0834 13.6521L10.6459 11.5896C10.5442 11.5284 10.46 11.442 10.4016 11.3387C10.3432 11.2354 10.3125 11.1187 10.3125 11V6.87503C10.3125 6.69269 10.3849 6.51782 10.5139 6.38889C10.6428 6.25996 10.8177 6.18753 11 6.18753C11.1823 6.18753 11.3572 6.25996 11.4861 6.38889C11.6151 6.51782 11.6875 6.69269 11.6875 6.87503ZM11 2.75003C9.91546 2.74732 8.84116 2.95974 7.83927 3.37499C6.83737 3.79023 5.92778 4.40005 5.16313 5.16917C4.53836 5.80167 3.9832 6.4101 3.4375 7.0469V5.50003C3.4375 5.31769 3.36507 5.14282 3.23614 5.01389C3.1072 4.88496 2.93234 4.81253 2.75 4.81253C2.56766 4.81253 2.3928 4.88496 2.26386 5.01389C2.13493 5.14282 2.0625 5.31769 2.0625 5.50003V8.93753C2.0625 9.11986 2.13493 9.29473 2.26386 9.42366C2.3928 9.55259 2.56766 9.62503 2.75 9.62503H6.1875C6.36984 9.62503 6.5447 9.55259 6.67364 9.42366C6.80257 9.29473 6.875 9.11986 6.875 8.93753C6.875 8.75519 6.80257 8.58032 6.67364 8.45139C6.5447 8.32246 6.36984 8.25003 6.1875 8.25003H4.21094C4.82539 7.52643 5.43727 6.84495 6.13508 6.13854C7.09058 5.18305 8.30647 4.53031 9.63082 4.2619C10.9552 3.9935 12.3293 4.12131 13.5814 4.62938C14.8335 5.13745 15.9081 6.00324 16.671 7.11858C17.4339 8.23391 17.8512 9.54933 17.8707 10.9005C17.8903 12.2516 17.5112 13.5785 16.7809 14.7155C16.0506 15.8524 15.0015 16.7489 13.7646 17.293C12.5277 17.8371 11.1579 18.0046 9.82629 17.7746C8.49473 17.5446 7.26047 16.9273 6.27773 15.9999C6.21205 15.9378 6.13479 15.8893 6.05035 15.8571C5.96592 15.8249 5.87597 15.8096 5.78563 15.8121C5.6953 15.8147 5.60635 15.835 5.52387 15.8719C5.44139 15.9089 5.36699 15.9617 5.30492 16.0274C5.24285 16.0931 5.19433 16.1703 5.16212 16.2547C5.12991 16.3392 5.11464 16.4291 5.1172 16.5195C5.11975 16.6098 5.14007 16.6988 5.177 16.7812C5.21393 16.8637 5.26674 16.9381 5.33242 17.0002C6.31164 17.9242 7.50213 18.5946 8.8 18.9528C10.0979 19.3109 11.4637 19.346 12.7782 19.0549C14.0928 18.7638 15.3161 18.1555 16.3414 17.2829C17.3668 16.4103 18.163 15.3 18.6606 14.0489C19.1581 12.7979 19.342 11.444 19.196 10.1056C19.05 8.76713 18.5787 7.48474 17.8231 6.37034C17.0676 5.25594 16.0508 4.34339 14.8614 3.71234C13.6721 3.08128 12.3464 2.7509 11 2.75003Z" fill="#C4CAD3"/>
</svg>
