<svg width="25" height="25" viewBox="0 0 25 25" fill="none" xmlns="http://www.w3.org/2000/svg">
<path d="M7.5 11.25H5.5C3.08 11.25 1.75 9.92 1.75 7.5V5.5C1.75 3.08 3.08 1.75 5.5 1.75H7.5C9.92 1.75 11.25 3.08 11.25 5.5V7.5C11.25 9.92 9.92 11.25 7.5 11.25ZM5.5 3.25C3.92 3.25 3.25 3.92 3.25 5.5V7.5C3.25 9.08 3.92 9.75 5.5 9.75H7.5C9.08 9.75 9.75 9.08 9.75 7.5V5.5C9.75 3.92 9.08 3.25 7.5 3.25H5.5Z" fill="black"/>
<path d="M19.5 11.25H17.5C15.08 11.25 13.75 9.92 13.75 7.5V5.5C13.75 3.08 15.08 1.75 17.5 1.75H19.5C21.92 1.75 23.25 3.08 23.25 5.5V7.5C23.25 9.92 21.92 11.25 19.5 11.25ZM17.5 3.25C15.92 3.25 15.25 3.92 15.25 5.5V7.5C15.25 9.08 15.92 9.75 17.5 9.75H19.5C21.08 9.75 21.75 9.08 21.75 7.5V5.5C21.75 3.92 21.08 3.25 19.5 3.25H17.5Z" fill="black"/>
<path d="M19.5 23.25H17.5C15.08 23.25 13.75 21.92 13.75 19.5V17.5C13.75 15.08 15.08 13.75 17.5 13.75H19.5C21.92 13.75 23.25 15.08 23.25 17.5V19.5C23.25 21.92 21.92 23.25 19.5 23.25ZM17.5 15.25C15.92 15.25 15.25 15.92 15.25 17.5V19.5C15.25 21.08 15.92 21.75 17.5 21.75H19.5C21.08 21.75 21.75 21.08 21.75 19.5V17.5C21.75 15.92 21.08 15.25 19.5 15.25H17.5Z" fill="black"/>
<path d="M7.5 23.25H5.5C3.08 23.25 1.75 21.92 1.75 19.5V17.5C1.75 15.08 3.08 13.75 5.5 13.75H7.5C9.92 13.75 11.25 15.08 11.25 17.5V19.5C11.25 21.92 9.92 23.25 7.5 23.25ZM5.5 15.25C3.92 15.25 3.25 15.92 3.25 17.5V19.5C3.25 21.08 3.92 21.75 5.5 21.75H7.5C9.08 21.75 9.75 21.08 9.75 19.5V17.5C9.75 15.92 9.08 15.25 7.5 15.25H5.5Z" fill="black"/>
</svg>
