<svg width="16" height="17" viewBox="0 0 16 17" fill="none" xmlns="http://www.w3.org/2000/svg">
<path d="M7.61853 10.1667C7.38242 10.1667 7.18437 10.0867 7.02437 9.92675C6.86437 9.76675 6.78464 9.56897 6.7852 9.33341C6.7852 9.0973 6.8652 8.89925 7.0252 8.73925C7.1852 8.57925 7.38298 8.49953 7.61853 8.50008C7.85464 8.50008 8.0527 8.58008 8.2127 8.74008C8.3727 8.90008 8.45242 9.09786 8.45187 9.33341C8.45187 9.56953 8.37187 9.76758 8.21187 9.92758C8.05187 10.0876 7.85409 10.1673 7.61853 10.1667ZM4.2852 10.1667C4.04909 10.1667 3.85103 10.0867 3.69103 9.92675C3.53103 9.76675 3.45131 9.56897 3.45187 9.33341C3.45187 9.0973 3.53187 8.89925 3.69187 8.73925C3.85187 8.57925 4.04964 8.49953 4.2852 8.50008C4.52131 8.50008 4.71937 8.58008 4.87937 8.74008C5.03937 8.90008 5.11909 9.09786 5.11853 9.33341C5.11853 9.56953 5.03853 9.76758 4.87853 9.92758C4.71853 10.0876 4.52075 10.1673 4.2852 10.1667ZM10.9519 10.1667C10.7158 10.1667 10.5177 10.0867 10.3577 9.92675C10.1977 9.76675 10.118 9.56897 10.1185 9.33341C10.1185 9.0973 10.1985 8.89925 10.3585 8.73925C10.5185 8.57925 10.7163 8.49953 10.9519 8.50008C11.188 8.50008 11.386 8.58008 11.546 8.74008C11.706 8.90008 11.7858 9.09786 11.7852 9.33341C11.7852 9.56953 11.7052 9.76758 11.5452 9.92758C11.3852 10.0876 11.1874 10.1673 10.9519 10.1667ZM7.61853 13.5001C7.38242 13.5001 7.18437 13.4201 7.02437 13.2601C6.86437 13.1001 6.78464 12.9023 6.7852 12.6667C6.7852 12.4306 6.8652 12.2326 7.0252 12.0726C7.1852 11.9126 7.38298 11.8329 7.61853 11.8334C7.85464 11.8334 8.0527 11.9134 8.2127 12.0734C8.3727 12.2334 8.45242 12.4312 8.45187 12.6667C8.45187 12.9029 8.37187 13.1009 8.21187 13.2609C8.05187 13.4209 7.85409 13.5006 7.61853 13.5001ZM4.2852 13.5001C4.04909 13.5001 3.85103 13.4201 3.69103 13.2601C3.53103 13.1001 3.45131 12.9023 3.45187 12.6667C3.45187 12.4306 3.53187 12.2326 3.69187 12.0726C3.85187 11.9126 4.04964 11.8329 4.2852 11.8334C4.52131 11.8334 4.71937 11.9134 4.87937 12.0734C5.03937 12.2334 5.11909 12.4312 5.11853 12.6667C5.11853 12.9029 5.03853 13.1009 4.87853 13.2609C4.71853 13.4209 4.52075 13.5006 4.2852 13.5001ZM10.9519 13.5001C10.7158 13.5001 10.5177 13.4201 10.3577 13.2601C10.1977 13.1001 10.118 12.9023 10.1185 12.6667C10.1185 12.4306 10.1985 12.2326 10.3585 12.0726C10.5185 11.9126 10.7163 11.8329 10.9519 11.8334C11.188 11.8334 11.386 11.9134 11.546 12.0734C11.706 12.2334 11.7858 12.4312 11.7852 12.6667C11.7852 12.9029 11.7052 13.1009 11.5452 13.2609C11.3852 13.4209 11.1874 13.5006 10.9519 13.5001ZM1.7852 16.8334C1.32687 16.8334 0.934365 16.6701 0.607698 16.3434C0.281032 16.0167 0.117976 15.6245 0.118532 15.1667V3.50008C0.118532 3.04175 0.281865 2.64925 0.608532 2.32258C0.935198 1.99591 1.32742 1.83286 1.7852 1.83341H2.61853V0.166748H4.2852V1.83341H10.9519V0.166748H12.6185V1.83341H13.4519C13.9102 1.83341 14.3027 1.99675 14.6294 2.32341C14.956 2.65008 15.1191 3.0423 15.1185 3.50008V15.1667C15.1185 15.6251 14.9552 16.0176 14.6285 16.3442C14.3019 16.6709 13.9096 16.834 13.4519 16.8334H1.7852ZM1.7852 15.1667H13.4519V6.83341H1.7852V15.1667Z" fill="#6B7280"/>
</svg>
