<svg width="25" height="25" viewBox="0 0 25 25" fill="none" xmlns="http://www.w3.org/2000/svg">
<path fill-rule="evenodd" clip-rule="evenodd" d="M12.558 2.5002C9.04635 2.48609 5.78554 4.30697 3.96059 7.30006C2.13541 10.2935 2.01288 14.0226 3.63765 17.1291L3.82147 17.4875C3.89175 17.6192 3.90531 17.7613 3.86458 17.8926C3.60204 18.5864 3.37136 19.3357 3.1873 20.0969L3.16776 20.2609C3.16776 21.0263 3.57616 21.5522 4.38671 21.5342L4.52167 21.518C5.25798 21.3554 5.9831 21.1459 6.69261 20.8908C6.78665 20.8671 6.9407 20.8763 7.07971 20.9332L7.76224 21.3194C7.76378 21.3242 7.76493 21.3277 7.77208 21.3319L7.81788 21.3479C11.4929 23.2803 15.9812 22.7472 19.0997 20.0078C22.2187 17.2681 23.3199 12.8901 21.8675 9.00383C20.4153 5.11799 16.7115 2.53073 12.558 2.5002ZM12.2675 3.89899L12.5484 3.89459C16.1231 3.92178 19.3109 6.14858 20.5605 9.49231C21.81 12.8357 20.8626 16.6021 18.1788 18.9595L17.9587 19.1466C15.3626 21.278 11.7582 21.7076 8.73269 20.2467L8.44496 20.1025L8.45729 20.1042L8.43909 20.0992L8.01677 19.8569C7.86471 19.7709 7.74408 19.7058 7.64685 19.659C7.1837 19.4681 6.71354 19.4399 6.27133 19.5617L5.85272 19.7055C5.57605 19.7968 5.30372 19.8794 5.03273 19.9541L4.63767 20.0573L4.54356 20.4249C4.71419 19.7192 4.92804 19.0246 5.18389 18.3451C5.34853 17.8182 5.29818 17.2905 5.05755 16.8402L4.87662 16.4873C3.47627 13.8098 3.58168 10.6019 5.15196 8.02645C6.67338 5.53117 9.35494 3.98232 12.2675 3.89899ZM6.9746 12.5002C6.9746 11.87 7.48586 11.3595 8.11596 11.3595C8.74606 11.3595 9.25732 11.87 9.25732 12.5002C9.25732 13.1304 8.74606 13.6408 8.11596 13.6408C7.48586 13.6408 6.9746 13.1304 6.9746 12.5002ZM11.4115 12.5002C11.4115 11.87 11.9227 11.3595 12.5528 11.3595C13.1829 11.3595 13.6942 11.87 13.6942 12.5002C13.6942 13.1304 13.1829 13.6408 12.5528 13.6408C11.9227 13.6408 11.4115 13.1304 11.4115 12.5002ZM16.9897 11.3595C16.3596 11.3595 15.8484 11.87 15.8484 12.5002C15.8484 13.1304 16.3596 13.6408 16.9897 13.6408C17.6198 13.6408 18.1311 13.1304 18.1311 12.5002C18.1311 11.87 17.6198 11.3595 16.9897 11.3595Z" fill="#200E32"/>
</svg>
