<svg width="30" height="33" viewBox="0 0 30 33" fill="none" xmlns="http://www.w3.org/2000/svg">
<path fill-rule="evenodd" clip-rule="evenodd" d="M30 9.28125V28.875C30 29.969 29.5485 31.0182 28.7447 31.7918C27.941 32.5654 26.8509 33 25.7143 33H23.5714V30.9375H25.7143C26.2826 30.9375 26.8277 30.7202 27.2295 30.3334C27.6314 29.9466 27.8571 29.422 27.8571 28.875V9.28125H23.5714C22.7189 9.28125 21.9014 8.9553 21.2986 8.37511C20.6958 7.79492 20.3571 7.00801 20.3571 6.1875V2.0625H8.57143C8.00311 2.0625 7.45806 2.2798 7.0562 2.66659C6.65434 3.05339 6.42857 3.57799 6.42857 4.125V22.6875H4.28571V4.125C4.28571 3.03098 4.73724 1.98177 5.54097 1.20818C6.3447 0.434597 7.43479 0 8.57143 0L20.3571 0L30 9.28125ZM3.42857 24.4406H0V32.6886H1.695V29.9207H3.41571C4.03071 29.9207 4.55357 29.8031 4.98429 29.5639C5.41929 29.3226 5.75143 28.9967 5.97643 28.5862C6.20997 28.1556 6.32853 27.6757 6.32143 27.1899C6.32143 26.6743 6.20786 26.2082 5.98286 25.7936C5.75906 25.3815 5.4169 25.04 4.99714 24.8098C4.56857 24.5623 4.04786 24.4406 3.42857 24.4406ZM4.59643 27.1899C4.60415 27.4617 4.54156 27.731 4.41429 27.9737C4.3001 28.185 4.12236 28.3582 3.90429 28.4707C3.65483 28.5895 3.37891 28.6476 3.10071 28.6399H1.68857V25.74H3.10286C3.57 25.74 3.93643 25.8638 4.2 26.1133C4.46357 26.3649 4.59643 26.7238 4.59643 27.1899ZM7.20429 24.4406V32.6886H10.3329C11.1921 32.6886 11.9057 32.5236 12.4714 32.1998C13.0439 31.8701 13.4909 31.3718 13.7464 30.7787C14.025 30.1599 14.1664 29.4133 14.1664 28.5429C14.1664 27.6767 14.0271 26.9383 13.7464 26.3258C13.494 25.7394 13.0512 25.2474 12.4843 24.9232C11.9186 24.6015 11.2007 24.4406 10.3307 24.4406H7.20429ZM8.89929 25.7709H10.1057C10.6371 25.7709 11.07 25.8741 11.4107 26.0844C11.7644 26.3071 12.0312 26.6364 12.1693 27.0208C12.3386 27.4354 12.4221 27.9531 12.4221 28.5739C12.4288 28.9852 12.3798 29.3957 12.2764 29.7949C12.2001 30.1097 12.0571 30.406 11.8564 30.6653C11.67 30.8965 11.423 31.0759 11.1407 31.185C10.81 31.3041 10.4587 31.3615 10.1057 31.3541H8.89929V25.7709ZM16.92 29.4071V32.6886H15.2271V24.4406H20.6871V25.7874H16.92V28.0912H20.3614V29.4071H16.92Z" fill="#8C8C8C"/>
</svg>
