<svg width="21" height="21" viewBox="0 0 21 21" fill="none" xmlns="http://www.w3.org/2000/svg">
<path d="M3.5756 10.0626C3.5756 11.0487 3.9056 11.8959 4.5656 12.6042C5.2256 13.3126 6.04838 13.7084 7.03394 13.7917L5.74227 12.5001L6.90894 11.3334L10.2423 14.6667L6.90894 18.0001L5.74227 16.8334L7.0756 15.5001C5.61727 15.4167 4.39144 14.8542 3.3981 13.8126C2.40477 12.7709 1.90838 11.5279 1.90894 10.0834C1.90894 8.56953 2.43338 7.28841 3.48227 6.24008C4.53116 5.19175 5.81227 4.6673 7.3256 4.66675H10.2423V6.33341H7.3256C6.28394 6.33341 5.39838 6.69453 4.66894 7.41675C3.93949 8.13897 3.57505 9.02092 3.5756 10.0626ZM11.9089 15.5001V13.8334H18.5756V15.5001H11.9089ZM11.9089 10.9167V9.25008H18.5756V10.9167H11.9089ZM11.9089 6.33341V4.66675H18.5756V6.33341H11.9089Z" fill="#6B7280"/>
</svg>
