<svg width="22" height="23" viewBox="0 0 22 23" fill="none" xmlns="http://www.w3.org/2000/svg">
<circle cx="11" cy="11.5" r="11" fill="#FBA63C"/>
<path d="M17.4969 11.2589L14.4511 6.04525C14.41 5.97447 14.351 5.91572 14.28 5.87488C14.2091 5.83404 14.1287 5.81253 14.0468 5.8125H7.95332C7.87154 5.8126 7.79121 5.83415 7.72036 5.87499C7.6495 5.91583 7.59059 5.97453 7.54951 6.04525L4.5032 11.2594C4.46049 11.3325 4.43799 11.4157 4.43799 11.5004C4.43799 11.5851 4.46049 11.6683 4.5032 11.7415L7.54995 16.9552C7.59103 17.0259 7.64994 17.0846 7.72079 17.1254C7.79165 17.1663 7.87198 17.1878 7.95376 17.1879H14.0473C14.129 17.1878 14.2094 17.1663 14.2802 17.1254C14.3511 17.0846 14.41 17.0259 14.4511 16.9552L17.4969 11.7406C17.5396 11.6675 17.5622 11.5843 17.5622 11.4996C17.5622 11.4149 17.5396 11.3317 17.4969 11.2585V11.2589ZM10.5083 8H11.4927V12.8125H10.5083V8ZM11.0001 15.4375C10.8703 15.4375 10.7434 15.399 10.6355 15.3269C10.5276 15.2548 10.4434 15.1523 10.3938 15.0324C10.3441 14.9125 10.3311 14.7805 10.3564 14.6532C10.3818 14.5259 10.4443 14.409 10.536 14.3172C10.6278 14.2254 10.7447 14.1629 10.872 14.1376C10.9993 14.1123 11.1313 14.1253 11.2512 14.175C11.3711 14.2246 11.4736 14.3087 11.5457 14.4167C11.6178 14.5246 11.6563 14.6515 11.6563 14.7812C11.6563 14.9553 11.5872 15.1222 11.4641 15.2453C11.341 15.3684 11.1741 15.4375 11.0001 15.4375Z" fill="white"/>
</svg>
