<svg width="22" height="23" viewBox="0 0 22 23" fill="none" xmlns="http://www.w3.org/2000/svg">
<circle cx="11" cy="11.5" r="11" fill="#EC2027"/>
<g clip-path="url(#clip0_338_8300)">
<path d="M15.7949 13.9323L12.0072 6.95562C11.9069 6.77137 11.7588 6.61757 11.5784 6.5104C11.3981 6.40324 11.1922 6.34668 10.9824 6.34668C10.7727 6.34668 10.5668 6.40324 10.3864 6.5104C10.2061 6.61757 10.058 6.77137 9.95772 6.95562L6.16605 13.9323C6.06681 14.1104 6.01599 14.3115 6.01865 14.5154C6.02132 14.7193 6.07739 14.9189 6.18126 15.0944C6.28513 15.2698 6.43317 15.415 6.61064 15.5155C6.78811 15.6159 6.98881 15.668 7.19272 15.6667H14.7683C14.9705 15.6669 15.1693 15.6145 15.3452 15.5147C15.5211 15.4149 15.668 15.271 15.7715 15.0973C15.8751 14.9236 15.9317 14.7259 15.9358 14.5237C15.9399 14.3215 15.8913 14.1217 15.7949 13.944V13.9323ZM10.401 8.95451C10.401 8.7998 10.4625 8.65143 10.5719 8.54203C10.6813 8.43264 10.8297 8.37118 10.9844 8.37118C11.1391 8.37118 11.2875 8.43264 11.3969 8.54203C11.5063 8.65143 11.5677 8.7998 11.5677 8.95451V11.634C11.5677 11.7887 11.5063 11.937 11.3969 12.0464C11.2875 12.1558 11.1391 12.2173 10.9844 12.2173C10.8297 12.2173 10.6813 12.1558 10.5719 12.0464C10.4625 11.937 10.401 11.7887 10.401 11.634V8.95451ZM10.9999 14.2084C10.8676 14.2084 10.7383 14.1692 10.6283 14.0957C10.5183 14.0222 10.4326 13.9177 10.382 13.7955C10.3313 13.6733 10.3181 13.5388 10.3439 13.409C10.3697 13.2793 10.4334 13.1601 10.527 13.0665C10.6205 12.973 10.7397 12.9093 10.8694 12.8835C10.9992 12.8577 11.1337 12.8709 11.2559 12.9215C11.3781 12.9722 11.4826 13.0579 11.5561 13.1679C11.6296 13.2779 11.6688 13.4072 11.6688 13.5395C11.6688 13.7169 11.5984 13.887 11.4729 14.0125C11.3475 14.1379 11.1773 14.2084 10.9999 14.2084Z" fill="white"/>
</g>
<defs>
<clipPath id="clip0_338_8300">
<rect width="14" height="14" fill="white" transform="translate(4 4)"/>
</clipPath>
</defs>
</svg>
