<svg width="4597" height="1126" viewBox="0 0 4597 1126" fill="none" xmlns="http://www.w3.org/2000/svg">
<path d="M4596.32 228.209C4596.32 330.721 4596.32 330.721 4495.03 330.721H4436.45V655.344C4436.45 694.397 4447.44 727.347 4495.03 727.347C4590.22 727.347 4590.22 727.347 4590.22 833.521C4392.52 844.505 4309.53 798.13 4309.53 655.344V331.942H4228.99L4230.21 257.498C4319.3 257.498 4309.53 255.057 4309.53 184.275V76.8809H4434.01V228.209H4596.32Z" fill="#11174D"/>
<path d="M4153.57 833.521C4153.57 948.238 4110.86 1069.06 3874.1 1069.06H3603.17C3603.17 972.645 3603.17 966.543 3699.59 966.543H3875.32C4029.09 966.543 4029.09 972.645 4029.09 842.064V762.739C4003.46 805.452 3948.54 838.403 3838.71 838.403C3642.23 838.403 3603.17 731.009 3603.17 558.934V226.989C3720.33 226.989 3726.43 226.989 3726.43 331.942V569.918C3726.43 676.091 3747.18 733.449 3874.1 733.449C4029.09 733.449 4029.09 733.449 4029.09 563.816V226.989C4153.57 226.989 4153.57 226.989 4153.57 331.942V833.521Z" fill="#11174D"/>
<path d="M3499 828.641C3405.03 828.641 3405.03 828.641 3405.03 738.332C3376.96 784.707 3296.42 834.743 3171.94 834.743C3042.58 834.743 2937.62 778.605 2937.62 652.905C2937.62 541.85 3009.63 453.982 3186.58 453.982H3375.74C3375.74 364.893 3325.71 331.943 3210.99 331.943H3088.95C2996.2 331.943 2996.2 331.943 2996.2 230.651H3207.33C3444.08 230.651 3499 328.282 3499 486.932V828.641ZM3375.74 571.139V551.613H3206.11C3068.21 551.613 3066.99 551.613 3066.99 651.684C3066.99 706.602 3113.36 738.332 3201.23 738.332C3375.74 738.332 3375.74 738.332 3375.74 571.139Z" fill="#11174D"/>
<path d="M2862.44 527.207C2862.44 690.739 2791.66 834.745 2585.41 834.745C2343.77 834.745 2281.53 687.078 2281.53 527.207V0C2403.57 0 2404.79 2.90963e-05 2404.79 104.953V300.215C2430.42 259.942 2490.22 218.449 2608.6 218.449C2806.3 218.449 2862.44 362.455 2862.44 527.207ZM2735.52 527.207C2735.52 406.389 2706.23 323.403 2569.55 323.403C2404.79 323.403 2403.57 323.402 2403.57 527.207C2403.57 651.687 2432.86 733.453 2571.99 733.453C2735.52 733.453 2735.52 733.453 2735.52 527.207Z" fill="#11174D"/>
<path d="M2193.67 528.437C2193.67 689.528 2130.21 835.974 1895.9 835.974C1659.14 835.974 1599.34 688.308 1599.34 528.437C1599.34 369.786 1661.58 222.12 1897.12 222.12C2130.21 222.12 2193.67 369.786 2193.67 528.437ZM2066.75 528.437C2066.75 417.382 2038.68 324.632 1897.12 324.632C1727.49 324.632 1727.49 324.632 1727.49 528.437C1727.49 643.153 1757.99 733.462 1895.9 733.462C2066.75 733.462 2066.75 733.462 2066.75 528.437Z" fill="#11174D"/>
<path d="M1510.27 828.649C1385.79 828.649 1385.79 828.649 1385.79 723.696V494.263C1385.79 388.089 1366.26 324.629 1239.34 324.629C1083.13 324.629 1083.13 324.629 1083.13 494.263V828.649C958.654 828.649 958.654 828.649 958.654 723.696V229.439C1053.84 229.439 1053.84 229.439 1053.84 313.645C1074.59 272.152 1138.05 220.896 1273.51 220.896C1470 220.896 1510.27 335.612 1510.27 505.246V828.649Z" fill="#11174D"/>
<path d="M846.48 828.649C722.001 828.649 722.001 828.649 722.001 723.696V494.263C722.001 388.089 702.475 324.629 575.554 324.629C419.345 324.629 419.345 324.629 419.345 494.263V828.649C294.865 828.649 294.865 828.649 294.865 723.696V229.439C390.055 229.439 390.055 229.439 390.055 313.645C410.802 272.152 474.262 220.896 609.725 220.896C806.207 220.896 846.48 335.612 846.48 505.246V828.649Z" fill="#11174D"/>
<path d="M173.783 828.653C70.2943 828.653 70.2943 828.653 70.2943 744.691L69.318 367.835H0L0.97631 284.849C72.2469 284.849 72.2469 284.849 72.2469 229.199C173.783 229.199 173.783 229.199 173.783 314.138V828.653Z" fill="#11174D"/>
<path d="M178.151 126.929C178.151 157.259 153.564 181.847 123.234 181.847C92.9038 181.847 68.3164 157.259 68.3164 126.929C68.3164 96.5991 92.9038 72.0117 123.234 72.0117C153.564 72.0117 178.151 96.5991 178.151 126.929Z" fill="#11174D"/>
<path d="M1825.69 962.88C1898.73 985.427 1969.7 1004.48 2041.07 1018.82C2076.7 1025.93 2112.27 1031.9 2147.84 1036.26C2183.41 1040.68 2218.93 1043.78 2254.44 1044.46C2325.41 1046.53 2396.16 1041.31 2466.38 1027.31C2470.74 1026.45 2475.22 1025.76 2479.58 1024.73L2492.66 1021.69C2501.38 1019.56 2510.27 1017.79 2518.99 1015.49C2536.32 1010.5 2554.16 1006.37 2571.43 1000.34C2606.83 990.075 2641.03 975.903 2677.4 962.88C2650.95 990.534 2621.35 1015.78 2588.47 1036.38C2572.35 1047.33 2555.08 1056.23 2537.81 1065.41C2529.15 1070.05 2520.08 1073.55 2511.13 1077.63L2497.65 1083.54C2493.17 1085.54 2488.47 1086.92 2483.88 1088.64C2410.21 1116.07 2330.58 1128 2252.03 1125.53C2242.22 1125.02 2232.41 1124.85 2222.6 1123.98C2212.85 1123.12 2203.04 1122.38 2193.28 1121.35C2173.89 1118.59 2154.44 1116.12 2135.39 1111.99C2097.12 1104.25 2059.6 1093.58 2023.34 1079.86C1987.08 1066.15 1952.03 1049.8 1918.69 1030.52C1902.05 1020.83 1885.76 1010.61 1870.21 999.312C1854.61 988.181 1839.46 976.19 1825.63 962.822L1825.69 962.88Z" fill="#11174D"/>
</svg>
